<?xml version="1.0" encoding="iso-8859-1"?>
<!-- Uploaded to: SVG Repo, www.svgrepo.com, Generator: SVG Repo Mixer Tools -->
<svg height="800px" width="800px" version="1.1" id="Layer_1" xmlns="http://www.w3.org/2000/svg" xmlns:xlink="http://www.w3.org/1999/xlink" 
	 viewBox="0 0 512 512" xml:space="preserve">
<g>
	<path style="fill:#FFFFFF;" d="M345.674,281.786c-3.695,0-7.365-0.155-10.907-0.459l-5.075-0.435l3.74-3.459
		c6.015-5.561,10.007-10.312,12.204-14.522l0.548-1.052l1.176-0.142c10.474-1.267,36.937-6.115,56.398-23.707l3.76-3.399v4.884
		c1.726,8.306,4.509,15.111,8.273,20.232l1.409,1.916l-1.992,1.301C397.14,274.743,371.146,281.786,345.674,281.786z"/>
	<path style="fill:#FFFFFF;" d="M405.268,239.723c1.8,8.788,4.715,15.9,8.71,21.335c-20.626,13.47-51.774,20.367-79.017,18.027
		c5.986-5.536,10.24-10.476,12.671-15.134c11.534-1.395,37.933-6.459,57.637-24.272C405.268,239.69,405.268,239.701,405.268,239.723
		z"/>
</g>
<g>
	<path style="fill:#8C887E;" d="M22.382,375.882c-4.275,0-7.753-3.484-7.753-7.764c0-1.485,0.424-2.928,1.227-4.169l58.585-92.065
		l1.985,2.046c8.079,8.332,20.058,15.979,35.604,22.727c1.493,0.657,3.006,1.291,4.635,1.944l2.545,1.022l-1.498,2.297
		c-10.353,15.874-28.584,28.981-44.671,40.545c-15.808,11.361-29.461,21.171-33.529,31.96l-0.549,1.456H22.382V375.882z"/>
	<path style="fill:#8C887E;" d="M111.132,298.721c1.587,0.698,3.151,1.35,4.692,1.969c-10.105,15.496-28.087,28.437-44.1,39.947
		c-16.395,11.783-30.022,21.594-34.321,32.993H22.382c-3.038,0-5.503-2.476-5.503-5.514c0-1.047,0.293-2.059,0.866-2.948
		l57.063-89.672C83.09,284.037,95.243,291.824,111.132,298.721z"/>
	<path style="fill:#8C887E;" d="M413.538,366.879c-19.475,0-56.147-42.921-64.468-69.881l-0.866-2.808l2.936-0.106
		c12.529-0.448,25.521-2.52,37.572-5.989l1.956-0.564l31.73,79.347H413.538z"/>
	<path style="fill:#8C887E;" d="M389.334,290.261l29.741,74.369h-5.536c-17.464,0-53.867-40.915-62.318-68.293
		C364.083,295.876,377.102,293.782,389.334,290.261z"/>
</g>
<g>
	<path style="fill:#B2AEA0;" d="M266.491,375.678c-9.85-1.074-18.506-6.477-23.75-14.824c-7.283-11.575-15.844-30.045-15.265-52.299
		c0.668-25.718,13.251-51.001,37.399-75.148c1.17-1.169,1.814-2.724,1.814-4.378s-0.644-3.209-1.814-4.378
		c-1.169-1.17-2.722-1.814-4.373-1.814c-1.651,0-3.203,0.644-4.372,1.814c-13.924,13.923-24.449,28.456-31.283,43.196l-2.35,5.069
		l-1.82-5.282c-8.441-24.503-25.48-43.633-37.508-52.569c-1.076-0.8-2.35-1.223-3.685-1.223c-1.98,0-3.793,0.909-4.971,2.494
		c-0.986,1.328-1.395,2.962-1.155,4.599c0.241,1.636,1.105,3.08,2.434,4.064c10.762,7.986,25.971,25.16,33.414,47.284
		c9.727,28.96,4.081,58.638-16.779,88.211c-1.312,1.865-1.497,4.295-0.477,6.341l4.516,9.049h-30.881l-0.563-1.425
		c-4.902-12.411-16.211-44.391-15.358-73.226c0.082-2.886-1.894-5.491-4.697-6.189c-14.36-3.575-54.118-17.247-65.499-37.306
		c-3.303-5.82-3.985-11.68-2.085-17.914c3.507-11.55,14.006-41.203,35.672-67.014c19.854-23.674,42.256-35.995,66.583-36.62
		c2.058-0.053,4.214-0.079,6.408-0.079c34.088,0,78.198,6.282,113.639,11.329l0.547,0.078c25.229,3.589,47.017,6.685,59.292,6.685
		c15.746,0,26.939-2.381,37.764-4.685c10.471-2.222,20.345-4.318,34.253-4.318c13.298,0,30.433,15.907,42.032,30.792
		c11.505,14.762,23.796,36.448,23.796,53.041c0,27.478-11.072,27.854-31.171,28.535c-5.715,0.189-11.609,0.385-17.633,1.357
		c-2.556,0.413-4.826,0.614-6.942,0.614c-11.074,0-17.557-5.712-21.021-18.52l-0.683-2.525l2.599-0.299
		c3.9-0.447,7.865-1.67,11.784-3.635c3.056-1.524,4.3-5.248,2.776-8.305c-1.053-2.105-3.177-3.414-5.542-3.414
		c-0.962,0-1.89,0.219-2.759,0.654c-3.366,1.672-6.583,2.518-9.566,2.518c-2.488,0-4.795-0.593-6.854-1.766
		c-5.958-3.385-9.842-11.651-10.652-22.675c-0.551-7.45,3.205-13.402,6.453-17.082c7.087-7.998,17.247-11.98,23.689-12.294
		c3.404-0.164,6.038-3.075,5.874-6.488c-0.16-3.305-2.867-5.892-6.163-5.892c-0.107,0-0.213,0.002-0.321,0.008
		c-11.305,0.557-23.999,7.018-32.343,16.459c-6.924,7.827-10.221,16.885-9.536,26.195c0.679,9.16,3.027,16.894,6.98,22.987
		l1.032,1.591l-1.392,1.287c-21.509,19.887-54.422,21.494-54.748,21.504c-2.977,0.132-5.446,2.387-5.844,5.363
		c-0.213,1.436-1.638,4.821-8.842,11.725c-5.284,5.057-12.916,11.275-24.748,20.159c-38.048,28.536-38.486,66.37-38.486,67.967
		c0,0.659,0.107,1.323,0.317,1.973l6.35,19.021L266.491,375.678z M473.178,206.483c-4.964,0-9.002,4.039-9.002,9.002
		c0,4.964,4.039,9.002,9.002,9.002s9.002-4.039,9.002-9.002C482.18,210.521,478.142,206.483,473.178,206.483z"/>
	<path style="fill:#B2AEA0;" d="M495.121,229.033c0,25.307-9.092,25.611-29.01,26.286c-5.784,0.191-11.77,0.394-17.903,1.384
		c-14.392,2.329-21.605-2.127-25.431-16.271c4.118-0.473,8.338-1.754,12.536-3.86c4.175-2.083,5.863-7.147,3.781-11.321
		c-2.082-4.162-7.157-5.85-11.32-3.77c-3.826,1.901-9.396,3.601-14.302,0.81c-5.289-3.004-8.766-10.621-9.52-20.885
		c-0.495-6.684,2.937-12.074,5.896-15.428c6.65-7.506,16.114-11.242,22.112-11.534c4.647-0.225,8.237-4.187,8.012-8.845
		c-0.225-4.659-4.175-8.26-8.845-8.023c-11.86,0.585-25.184,7.337-33.916,17.217c-7.337,8.293-10.825,17.914-10.094,27.851
		c0.709,9.576,3.241,17.734,7.337,24.047c-20.75,19.186-52.955,20.896-53.293,20.908c-4.085,0.18-7.461,3.263-8.001,7.314
		c-0.045,0.304-0.619,3.162-8.17,10.398c-5.266,5.041-12.839,11.196-24.542,19.985c-38.935,29.201-39.385,68.124-39.385,69.767
		c0,0.9,0.146,1.8,0.428,2.667l5.244,15.709c-9.081-0.99-17.183-5.975-22.089-13.785c-7.123-11.32-15.484-29.371-14.921-51.042
		c0.653-25.115,13.008-49.883,36.74-73.615c3.297-3.297,3.297-8.642,0-11.938c-3.297-3.298-8.631-3.298-11.928,0
		c-14.167,14.167-24.767,28.817-31.733,43.841c-8.597-24.96-25.949-44.472-38.293-53.643c-3.736-2.779-9.025-2.002-11.804,1.733
		c-2.779,3.747-2.003,9.036,1.744,11.815c10.51,7.799,25.352,24.588,32.622,46.194c9.486,28.244,3.938,57.243-16.485,86.196
		c-1.789,2.543-2.037,5.863-0.653,8.642l2.892,5.795h-25.713c-4.76-12.052-16.046-43.796-15.202-72.333
		c0.113-3.971-2.554-7.482-6.403-8.44c-14.1-3.511-53.09-16.857-64.084-36.234c-2.982-5.255-3.601-10.531-1.89-16.148
		c3.466-11.41,13.83-40.712,35.244-66.222c19.422-23.158,41.264-35.21,64.917-35.817c34.557-0.878,81.751,5.829,119.673,11.229
		c25.566,3.635,47.633,6.785,60.157,6.785c15.99,0,27.299-2.408,38.248-4.737c10.341-2.194,20.12-4.265,33.77-4.265
		C454.127,147.451,495.121,200.057,495.121,229.033z M484.431,215.485c0-6.212-5.041-11.253-11.253-11.253
		c-6.211,0-11.253,5.041-11.253,11.253c0,6.212,5.041,11.253,11.253,11.253C479.39,226.738,484.431,221.696,484.431,215.485z"/>
</g>
<g>
	<path style="fill:#3D484A;" d="M512,229.033c0,18.184-4.895,30.202-14.966,36.74c-8.777,5.683-19.749,6.054-30.349,6.413
		c-5.266,0.18-10.713,0.36-15.799,1.183c-8.845,1.429-16.474,0.911-22.899-1.53c-0.146,0.135-0.281,0.259-0.439,0.371
		c-6.549,4.816-14.088,8.991-22.28,12.446l31.992,79.973h3.286c4.659,0,8.44,3.77,8.44,8.44c0,4.659-3.781,8.44-8.44,8.44h-27.007
		c-19.749,0-41.444-22.708-49.861-32.475c-12.153-14.099-26.095-35.141-30-53.112c-5.514-0.474-10.915-1.284-16.114-2.431
		c-2.217,1.71-4.546,3.477-6.988,5.311c-28.695,21.527-32.16,49.028-32.577,55.06l6.594,19.771h2.914c4.659,0,8.44,3.77,8.44,8.44
		c0,4.659-3.781,8.44-8.44,8.44h-17.464c-16.238,0-31.08-8.182-39.688-21.875c-4.04-6.413-8.417-14.719-11.782-24.496
		c-2.959,6.673-6.673,13.548-11.32,20.581l4.456,8.912h12.783c4.659,0,8.44,3.77,8.44,8.44c0,4.659-3.781,8.44-8.44,8.44h-63.015
		c-3.331,0-6.347-1.958-7.708-4.996c-0.765-1.721-17.836-40.319-18.747-78.072c-0.911-0.281-1.913-0.585-2.993-0.922
		c-11.489,19.782-32.149,34.67-50.457,47.824c-8.586,6.177-18.556,13.345-24.205,19.287h14.088c4.659,0,8.44,3.77,8.44,8.44
		c0,4.659-3.781,8.44-8.44,8.44H22.382C10.037,390.513,0,380.465,0,368.12c0-4.265,1.215-8.416,3.5-12.018l60.832-95.592
		c0.045-0.068,0.101-0.135,0.146-0.203c-3.286-7.967-3.668-16.26-1.103-24.722c12.626-41.569,51.234-112.36,115.892-114.013
		c35.964-0.934,83.934,5.908,122.475,11.388c24.936,3.543,46.463,6.617,57.783,6.617c14.212,0,24.182-2.127,34.737-4.366
		c10.746-2.284,21.853-4.636,37.28-4.636c23.012,0,45.191,25.442,53.653,36.38C498.159,183.696,512,208.801,512,229.033z
		 M466.111,255.321c19.917-0.676,29.01-0.979,29.01-26.286c0-28.976-40.994-81.582-63.578-81.582c-13.65,0-23.428,2.07-33.77,4.265
		c-10.949,2.329-22.258,4.737-38.248,4.737c-12.524,0-34.591-3.151-60.157-6.785c-37.922-5.401-85.116-12.108-119.673-11.229
		c-23.653,0.608-45.495,12.659-64.917,35.817C93.364,199.767,83,229.069,79.534,240.479c-1.71,5.615-1.092,10.893,1.89,16.148
		c10.994,19.378,49.985,32.723,64.084,36.234c3.848,0.958,6.515,4.468,6.403,8.44c-0.844,28.537,10.443,60.281,15.202,72.333h25.713
		l-2.892-5.795c-1.384-2.779-1.137-6.099,0.653-8.642c20.424-28.952,25.971-57.952,16.485-86.196
		c-7.269-21.605-22.112-38.394-32.622-46.194c-3.747-2.779-4.524-8.068-1.744-11.815c2.779-3.735,8.068-4.512,11.804-1.733
		c12.344,9.171,29.696,28.683,38.293,53.643c6.965-15.024,17.566-29.673,31.733-43.841c3.297-3.298,8.631-3.298,11.928,0
		c3.297,3.297,3.297,8.642,0,11.938c-23.732,23.732-36.088,48.5-36.74,73.615c-0.563,21.673,7.798,39.722,14.921,51.042
		c4.906,7.809,13.008,12.794,22.089,13.785l-5.244-15.709c-0.281-0.868-0.428-1.767-0.428-2.667c0-1.643,0.45-40.566,39.385-69.767
		c11.703-8.787,19.276-14.944,24.542-19.985c7.551-7.237,8.124-10.095,8.17-10.398c0.54-4.051,3.916-7.134,8.001-7.314
		c0.338-0.011,32.543-1.722,53.293-20.908c-4.096-6.313-6.628-14.471-7.337-24.047c-0.731-9.936,2.757-19.557,10.094-27.851
		c8.732-9.88,22.055-16.632,33.916-17.217c4.67-0.236,8.62,3.365,8.845,8.023c0.225,4.659-3.365,8.62-8.012,8.845
		c-5.998,0.293-15.461,4.028-22.112,11.534c-2.96,3.353-6.392,8.743-5.896,15.428c0.754,10.262,4.231,17.881,9.52,20.885
		c4.906,2.791,10.476,1.092,14.302-0.81c4.164-2.082,9.238-0.394,11.32,3.77c2.082,4.175,0.394,9.239-3.781,11.321
		c-4.197,2.104-8.417,3.387-12.536,3.86c3.826,14.145,11.039,18.601,25.431,16.271C454.341,255.713,460.327,255.512,466.111,255.321
		z M419.075,364.629l-29.741-74.369c-12.232,3.522-25.251,5.615-38.113,6.075c8.451,27.378,44.853,68.293,62.318,68.293h5.536
		V364.629z M413.977,261.059c-3.995-5.435-6.909-12.547-8.71-21.335c0-0.023,0-0.034,0-0.045
		c-19.704,17.813-46.103,22.877-57.637,24.272c-2.431,4.659-6.684,9.597-12.671,15.134
		C362.203,281.426,393.351,274.528,413.977,261.059z M115.825,300.691c-1.542-0.619-3.106-1.272-4.692-1.969
		c-15.889-6.898-28.042-14.685-36.324-23.226l-57.063,89.672c-0.574,0.889-0.866,1.902-0.866,2.948c0,3.038,2.464,5.514,5.503,5.514
		h15.022c4.299-11.399,17.926-21.211,34.321-32.993C87.738,329.128,105.72,316.187,115.825,300.691z"/>
	<path style="fill:#3D484A;" d="M473.178,204.232c6.212,0,11.253,5.041,11.253,11.253c0,6.212-5.041,11.253-11.253,11.253
		c-6.211,0-11.253-5.041-11.253-11.253C461.925,209.273,466.967,204.232,473.178,204.232z"/>
</g>
</svg>